<?xml version="1.0" encoding="iso-8859-1"?>
<!-- Uploaded to: SVG Repo, www.svgrepo.com, Generator: SVG Repo Mixer Tools -->
<svg height="800px" width="800px" version="1.1" id="Layer_1" xmlns="http://www.w3.org/2000/svg" xmlns:xlink="http://www.w3.org/1999/xlink" 
	 viewBox="0 0 512 512" xml:space="preserve">
<polygon style="fill:#FF583E;" points="311.88,140.816 168.96,0 26.04,140.816 87.376,140.816 87.376,333.272 250.544,333.272 
	250.544,140.816 "/>
<path style="fill:#32BEA6;" d="M485.96,493.72c-16.368,9.144-44.28,18.28-75.088,18.28c-47.176,0-90.472-19.264-117.432-54.872
	c-13.016-16.376-22.616-37.048-26.96-62.56h-31.296v-34.192h26.464c0-2.4,0-5.296,0-8.184c0-4.8,0.496-9.6,0.496-14.432h-26.96
	V303.6h32.248c6.248-26.008,17.816-48.128,33.208-65.952c27.448-30.808,65.952-49.088,111.184-49.088
	c29.36,0,54.872,6.736,72.2,14.432l-13.48,54.872c-12.496-5.296-32.216-11.576-53.424-11.576c-23.08,0-44.288,7.728-59.176,26.008
	c-6.736,7.696-12.032,18.776-15.416,31.296h119.864v34.16H335.288c-0.464,4.832-0.464,10.128-0.464,14.928c0,2.896,0,4.8,0,7.696
	h127.56v34.192H341.568c3.352,14.432,8.648,25.512,15.88,33.696c15.384,17.328,38.04,24.528,62.104,24.528
	c22.128,0,44.744-7.2,54.872-12.496L485.96,493.72z"/>
</svg>